<?xml version="1.0" encoding="UTF-8"?>
<svg xmlns="http://www.w3.org/2000/svg" xmlns:xlink="http://www.w3.org/1999/xlink" width="32pt" height="32pt" viewBox="0 0 32 32" version="1.1">
<g id="surface50980966">
<path style="fill-rule:nonzero;fill:rgb(0%,0%,0%);fill-opacity:1;stroke-width:8;stroke-linecap:butt;stroke-linejoin:round;stroke:rgb(86.274511%,14.901961%,14.901961%);stroke-opacity:1;stroke-miterlimit:10;" d="M 74.105879 27.496749 C 83.053953 29.651322 88.286487 35.433492 90.309148 44.205682 C 91.540332 49.526159 90.463046 54.582809 88.374429 59.529533 C 87.16523 62.409626 85.582278 65.157806 83.559618 67.64216 C 83.097924 67.202451 82.658215 66.762743 82.218506 66.345019 C 72.281088 56.935251 75.974641 60.518878 73.512272 57.704742 C 73.270433 57.418931 73.292418 57.199077 73.490287 56.869295 C 75.425006 53.747363 76.238467 50.361605 75.820743 46.712022 C 75.556918 44.447522 74.831399 42.358905 73.182491 40.666027 C 69.818719 37.148356 64.080519 37.214313 60.760718 40.797939 C 58.10048 43.700017 57.462902 47.129746 58.210407 50.86727 C 58.254378 51.175066 58.298349 51.504848 58.210407 51.768673 C 57.418931 54.934577 57.155106 58.144451 57.638785 61.37631 C 57.660771 61.486237 57.660771 61.640135 57.660771 61.750063 C 57.660771 61.816019 57.638785 61.85999 57.6168 61.991902 C 52.560149 59.463577 49.240348 55.462227 47.569454 49.943882 C 45.634736 54.055159 44.975173 58.144451 46.030474 62.431611 C 42.402876 58.935926 41.08375 54.516853 40.929852 49.702042 C 40.775954 45.722678 41.391546 41.897211 43.875901 38.57741 C 43.941857 40.270289 44.139726 41.919197 44.84326 43.546119 C 46.228343 37.214313 49.438217 32.179647 54.692737 28.420137 C 54.253028 29.783234 53.879275 31.146332 53.989203 32.509429 C 56.011863 30.794565 58.364305 28.398152 64.300373 27.276894 C 66.015238 26.947113 67.752087 26.837186 69.400995 26.881157 C 71.071889 26.947113 72.65484 27.166967 74.105879 27.496749 Z M 66.14715 59.397621 C 68.65349 61.991902 71.357699 64.432286 74.039923 66.938626 C 76.12854 68.89533 78.283113 70.786078 79.954006 73.13852 C 80.217831 73.490287 80.459671 73.886025 80.833423 74.215806 C 79.668195 71.203801 77.535608 68.65349 75.205151 66.410976 C 72.984622 64.256403 70.698136 62.167786 68.433636 60.079169 C 67.664146 59.397621 67.356349 58.540188 67.246422 57.572829 C 66.960612 55.176416 67.246422 52.801989 68.235767 50.58146 C 68.345694 50.361605 68.499592 50.141751 68.675476 49.833955 C 68.807388 50.801314 68.807388 51.658746 69.005257 52.516178 C 70.126515 57.836654 73.754112 60.89263 80.459671 67.158481 C 82.790128 69.335039 84.966686 71.599539 86.417725 74.479632 C 87.538982 76.612219 88.110604 78.854734 87.736851 81.317103 C 87.714866 81.449016 87.868764 81.690856 88.000677 81.778797 C 89.451716 82.372404 90.331133 83.361749 90.265177 85.076613 C 92.045997 84.461021 93.167255 83.207851 94.068658 81.712841 C 95.058002 86.373754 91.958056 93.343138 87.736851 95.277857 C 87.824793 94.244541 88.90208 89.869439 83.911385 88.880094 C 82.328433 88.572298 80.921365 88.572298 78.568923 88.396414 C 79.668195 86.307798 81.009307 83.64756 78.700836 83.229836 C 72.918665 82.174535 66.432961 83.669545 65.267733 84.285137 C 67.180466 84.373079 69.049228 84.526977 70.720122 85.054628 C 70.258427 86.549638 69.796733 88.000677 69.37901 89.42973 C 68.939301 90.92474 69.862689 92.793502 71.533583 91.628274 C 71.819394 91.430405 72.083219 91.188565 72.303073 91.012682 C 71.599539 95.145944 71.64351 94.68425 71.665495 95.233886 C 71.731452 97.586328 73.864039 97.036692 75.315078 96.926765 C 74.743457 99.652959 68.455621 103.236586 64.762068 102.884819 C 66.38899 101.785547 67.708116 100.510391 68.455621 98.751556 C 66.938626 98.92744 65.443616 99.125309 63.992577 99.301192 L 63.904636 99.081338 C 65.003908 98.311847 65.773398 97.278532 66.279063 96.047347 C 68.301723 91.188565 65.443616 87.275157 60.474907 86.857434 C 58.364305 86.659565 56.341645 87.033317 54.450897 88.110604 C 55.901936 84.526977 58.452247 81.976666 62.035873 80.151875 C 58.496218 79.16253 59.969242 79.536283 56.319659 78.700836 C 59.705417 76.546263 63.333014 75.64486 67.11451 75.315078 C 65.90531 74.589559 55.945907 74.501617 50.801314 80.151875 C 52.648091 80.481656 54.406926 80.789453 56.187747 81.119234 C 50.669401 82.746157 45.964517 85.67022 41.677357 89.341788 C 41.941182 88.220531 42.314935 87.143244 42.446847 86.043973 C 42.600745 85.010657 42.644716 83.911385 42.468833 82.900055 C 42.117066 80.723496 40.402201 79.40437 37.895861 79.140545 C 36.049085 78.92069 34.268264 79.16253 32.487443 79.448341 C 32.267589 79.470326 32.091706 79.514297 31.805895 79.448341 C 35.477463 76.018612 40.182347 74.435661 44.161711 71.709466 C 45.546794 70.654165 45.722678 69.796733 44.84326 68.257752 C 43.612075 66.125165 41.787284 64.65214 39.720653 63.355 C 42.908541 63.223087 45.898561 63.39897 48.910566 64.190446 C 47.283644 61.37631 46.931877 58.496218 47.745338 55.264358 C 48.976523 58.012538 50.955212 59.903286 53.241698 61.442266 C 57.814669 64.498242 61.552194 65.971267 64.102505 68.411651 C 64.89398 69.181141 65.575529 70.060558 66.345019 70.939976 C 66.14715 70.456296 66.015238 69.994602 65.817369 69.554893 C 64.65214 67.11451 62.805364 65.245747 60.562849 63.772723 C 60.145126 63.486912 59.925271 63.201102 59.771373 62.739407 C 59.001883 59.859315 59.089824 56.935251 59.617475 54.055159 C 59.859315 52.780003 60.255053 51.548819 60.650791 50.295649 C 60.84866 49.746013 61.200427 49.218362 61.596164 48.756668 C 61.728077 50.361605 61.596164 54.648766 66.14715 59.397621 Z M 125.881588 67.664146 C 125.661733 67.818044 125.507835 67.905985 125.375923 68.015913 C 122.671714 69.818719 122.627743 69.708791 121.880238 70.786078 C 121.264646 71.621525 121.836267 72.632855 122.97951 72.347044 C 123.573117 72.215131 124.188709 72.039248 124.76033 71.841379 C 126.936889 71.071889 129.179404 70.500267 131.487875 70.368355 C 134.719734 70.170486 137.797696 70.786078 140.787715 71.995277 C 144.2834 73.424331 147.405332 75.468976 150.109541 78.129215 C 150.219469 78.283113 150.395352 78.371054 150.505279 78.480982 L 150.505279 78.590909 C 147.03158 77.755462 143.579866 78.173185 140.150138 78.898705 C 137.995565 79.360399 135.906948 79.975991 133.950244 80.965336 C 133.290681 81.317103 132.609132 81.734826 132.081481 82.042623 C 130.74037 81.492987 129.465214 80.789453 128.080132 80.481656 C 122.385903 79.272457 117.439179 80.745482 113.547757 85.098599 C 108.974785 90.221206 105.545057 96.091318 102.708935 102.313197 L 102.423124 102.92879 C 102.401139 102.97276 102.379154 103.016731 102.335183 103.038717 C 99.499061 101.103998 97.300517 98.333833 93.936745 97.102648 C 94.002701 97.014706 94.024687 96.904779 94.090643 96.816838 C 98.883469 90.309148 104.533727 84.680875 111.569067 80.547613 C 115.284606 78.349069 119.22 76.832074 123.529146 76.282438 C 123.946869 76.238467 124.342607 76.194496 124.76033 76.018612 C 123.749 76.018612 122.715685 75.952656 121.704354 76.040598 C 116.779616 76.480307 112.294587 78.283113 108.073382 80.723496 C 104.863508 82.570273 101.983416 84.790802 99.565017 87.604939 C 99.477076 87.714866 99.433105 87.846778 99.345163 87.978691 C 99.279207 87.912735 99.191265 87.846778 99.125309 87.780822 C 101.67562 80.635555 106.270576 75.073239 112.536426 70.852034 C 112.580397 70.896005 112.646354 70.917991 112.690324 70.961961 C 112.426499 71.357699 112.118703 71.731452 111.898849 72.149175 C 111.45914 72.89668 111.019431 73.644185 110.711635 74.457646 C 110.271926 75.446991 111.063402 76.436336 113.4818 74.567573 C 117.72499 71.313728 120.363243 68.499592 124.848272 67.730102 C 125.024156 67.708116 125.156068 67.664146 125.287981 67.664146 Z M 80.239817 80.063933 C 79.16253 77.447666 77.42568 75.556918 74.699486 74.457646 C 75.468976 78.1512 77.623549 80.327758 80.239817 80.063933 Z M 40.622056 83.559618 C 40.578085 83.801458 39.236973 92.551662 39.324915 93.892774 C 43.700017 89.517672 48.734683 86.197871 54.384941 83.735501 C 52.648091 86.307798 51.83463 89.143919 51.636761 92.353793 C 54.758693 89.539657 58.078494 87.714866 62.431611 89.143919 C 60.452922 91.254522 55.264358 96.17926 53.461552 103.984091 C 52.274338 109.040742 52.582135 113.943494 55.374285 118.428524 C 57.968567 122.671714 61.838004 124.870258 66.850684 124.870258 C 69.774748 124.870258 72.391015 123.705029 74.787428 122.144063 C 79.074588 119.285956 82.39439 115.548431 85.010657 111.151344 C 85.450366 110.403839 85.252497 110.667664 85.450366 110.44781 C 90.067308 114.163349 86.219856 111.041416 95.365799 118.670364 C 95.717566 118.97816 95.805507 119.22 95.585653 119.615738 C 89.693555 131.224049 81.383059 140.216094 68.609519 142.458609 C 62.38764 143.535895 56.319659 143.074201 50.515503 140.457934 C 46.206357 138.567186 42.446847 135.928933 39.522784 132.23538 C 39.06109 131.641773 38.665352 131.004195 38.159687 130.25669 C 38.005789 132.059496 38.181672 133.708404 38.511454 135.313341 C 38.467483 135.357312 38.423512 135.379297 38.379541 135.423268 C 37.632036 134.631792 36.818575 133.906273 36.159012 133.048841 C 33.32289 129.465214 31.608026 125.375923 30.552725 120.978835 C 27.804545 109.832217 30.442798 102.774891 32.355531 97.630299 C 30.354856 98.729571 28.596021 100.004726 26.881157 101.367823 C 29.56338 93.804832 34.290249 87.538982 39.918522 81.844754 C 40.490143 82.328433 40.688012 82.944026 40.622056 83.559618 Z M 79.140545 90.463046 C 80.151875 90.594958 81.207176 90.660915 82.240492 90.814813 C 84.109254 91.100623 85.208526 92.243866 85.560293 94.112629 C 85.714191 94.882119 85.846104 95.673595 86.065958 96.465071 C 86.43971 97.762211 87.121259 98.311847 88.484356 98.399789 C 89.561643 98.465745 90.638929 98.509716 91.716216 98.597658 C 93.475051 98.751556 95.014032 99.477076 96.377129 100.620318 C 100.906129 104.357843 105.457115 108.051397 109.986115 111.766936 C 111.305242 112.866208 112.778266 113.657684 114.537101 113.72364 C 118.428524 113.855553 121.286631 110.227955 120.319272 106.380503 C 120.275301 106.226605 120.23133 106.050722 120.297286 105.742926 C 120.846922 106.20462 121.440529 106.622343 121.924209 107.106023 C 125.200039 110.337882 126.123428 116.164024 123.946869 120.055446 C 123.463189 120.934864 122.715685 121.704354 122.056121 122.561786 C 122.232005 122.605757 122.473845 122.671714 122.759655 122.693699 C 126.0135 123.023481 129.091462 122.451859 131.795671 120.583097 C 135.489225 118.076757 135.99489 113.393858 133.070826 110.052072 C 131.971554 108.820887 131.004195 108.205295 128.695724 107.281906 C 130.212719 106.996096 133.158768 107.237936 135.357312 107.963455 C 140.062196 109.48045 143.623837 112.294587 145.53657 116.9555 C 147.669158 122.275976 146.02025 128.343957 141.491249 132.191409 C 137.665783 135.423268 133.180753 136.610482 128.23403 136.192759 C 128.102117 136.192759 127.948219 136.214744 127.794321 136.2807 C 131.311991 138.743069 135.137457 139.776385 139.644472 138.721084 C 139.116822 139.27072 138.721084 139.798371 138.25939 140.216094 C 135.401283 142.744419 132.015525 144.107517 128.278001 144.789065 C 119.088087 146.481944 110.711635 141.843016 108.513091 131.663758 C 108.403164 131.180078 108.381178 130.696399 108.315222 130.168748 C 105.808882 132.059496 104.511741 138.061521 108.161324 142.26074 C 107.787572 142.150812 107.545732 142.106842 107.303892 141.996914 C 102.357168 140.084181 99.301192 135.467239 99.521047 130.168748 C 99.740901 124.826287 100.664289 120.693024 96.509041 117.24131 C 92.66159 114.053422 88.836123 110.909504 84.988671 107.743601 C 83.119909 106.20462 81.558943 104.401814 81.053278 101.96143 C 80.811438 100.884144 80.723496 99.784872 80.635555 98.707585 C 80.503642 97.300517 79.866064 96.157274 78.788778 95.277857 C 77.733477 94.376454 76.634205 93.562993 75.578904 92.70556 C 73.512272 90.968711 72.720797 88.330458 73.864039 85.780147 C 74.523603 88.770167 76.106554 90.15525 79.140545 90.463046 Z M 79.140545 90.463046 " transform="matrix(0.177674,0,0,0.177674,0.72,0.72)"/>
<path style=" stroke:none;fill-rule:nonzero;fill:rgb(0%,0%,0%);fill-opacity:1;" d="M 13.050781 5.496094 C 12.757812 5.488281 12.449219 5.507812 12.144531 5.566406 C 11.089844 5.765625 10.671875 6.191406 10.3125 6.496094 C 10.292969 6.253906 10.359375 6.011719 10.4375 5.769531 C 9.503906 6.4375 8.933594 7.332031 8.6875 8.457031 C 8.5625 8.167969 8.527344 7.875 8.515625 7.574219 C 8.074219 8.164062 7.964844 8.84375 7.992188 9.550781 C 8.019531 10.40625 8.253906 11.191406 8.898438 11.8125 C 8.710938 11.050781 8.828125 10.324219 9.171875 9.59375 C 9.46875 10.574219 10.058594 11.285156 10.957031 11.734375 C 10.960938 11.710938 10.964844 11.703125 10.964844 11.691406 C 10.964844 11.671875 10.964844 11.644531 10.960938 11.625 C 10.875 11.050781 10.921875 10.480469 11.0625 9.917969 C 11.078125 9.871094 11.070312 9.8125 11.0625 9.757812 C 10.929688 9.09375 11.042969 8.484375 11.515625 7.96875 C 12.105469 7.332031 13.125 7.320312 13.722656 7.945312 C 14.015625 8.246094 14.144531 8.617188 14.191406 9.019531 C 14.265625 9.667969 14.121094 10.269531 13.777344 10.824219 C 13.742188 10.882812 13.738281 10.921875 13.78125 10.972656 C 14.21875 11.472656 13.5625 10.835938 15.328125 12.507812 C 15.40625 12.582031 15.484375 12.660156 15.566406 12.738281 C 15.925781 12.296875 16.207031 11.808594 16.421875 11.296875 C 16.792969 10.417969 16.984375 9.519531 16.765625 8.574219 C 16.40625 7.015625 15.476562 5.988281 13.886719 5.605469 C 13.628906 5.546875 13.347656 5.507812 13.050781 5.496094 Z M 11.664062 9.382812 C 11.59375 9.464844 11.53125 9.558594 11.496094 9.65625 C 11.425781 9.878906 11.355469 10.097656 11.3125 10.324219 C 11.21875 10.835938 11.203125 11.355469 11.339844 11.867188 C 11.367188 11.949219 11.40625 12 11.480469 12.050781 C 11.878906 12.3125 12.207031 12.644531 12.414062 13.078125 C 12.449219 13.15625 12.472656 13.238281 12.507812 13.324219 C 12.371094 13.167969 12.25 13.011719 12.109375 12.875 C 11.65625 12.441406 10.992188 12.179688 10.179688 11.636719 C 9.773438 11.363281 9.421875 11.027344 9.203125 10.539062 C 9.058594 11.113281 9.121094 11.625 9.410156 12.125 C 8.875 11.984375 8.34375 11.953125 7.777344 11.976562 C 8.144531 12.207031 8.46875 12.46875 8.6875 12.847656 C 8.84375 13.121094 8.8125 13.273438 8.566406 13.460938 C 7.859375 13.945312 7.023438 14.226562 6.371094 14.835938 C 6.421875 14.847656 6.453125 14.839844 6.492188 14.835938 C 6.808594 14.785156 7.125 14.742188 7.453125 14.78125 C 7.898438 14.828125 8.203125 15.0625 8.265625 15.449219 C 8.296875 15.628906 8.289062 15.824219 8.261719 16.007812 C 8.238281 16.203125 8.171875 16.394531 8.125 16.59375 C 8.886719 15.941406 9.722656 15.421875 10.703125 15.132812 C 10.386719 15.074219 10.074219 15.019531 9.746094 14.960938 C 10.660156 13.957031 12.429688 13.972656 12.644531 14.101562 C 11.972656 14.160156 11.328125 14.320312 10.726562 14.703125 C 11.375 14.851562 11.113281 14.785156 11.742188 14.960938 C 11.105469 15.285156 10.652344 15.738281 10.394531 16.375 C 10.730469 16.183594 11.089844 16.117188 11.464844 16.152344 C 12.347656 16.226562 12.855469 16.921875 12.496094 17.785156 C 12.40625 18.003906 12.269531 18.1875 12.074219 18.324219 L 12.089844 18.363281 C 12.347656 18.332031 12.613281 18.296875 12.882812 18.265625 C 12.75 18.578125 12.515625 18.804688 12.226562 19 C 12.882812 19.0625 14 18.425781 14.101562 17.941406 C 13.84375 17.960938 13.464844 18.058594 13.453125 17.640625 C 13.449219 17.542969 13.441406 17.625 13.566406 16.890625 C 13.527344 16.921875 13.480469 16.964844 13.429688 17 C 13.132812 17.207031 12.96875 16.875 13.046875 16.609375 C 13.121094 16.355469 13.203125 16.097656 13.285156 15.832031 C 12.988281 15.738281 12.65625 15.710938 12.316406 15.695312 C 12.523438 15.585938 13.675781 15.320312 14.703125 15.507812 C 15.113281 15.582031 14.875 16.054688 14.679688 16.425781 C 15.097656 16.457031 15.347656 16.457031 15.628906 16.511719 C 16.515625 16.6875 16.324219 17.464844 16.308594 17.648438 C 17.058594 17.304688 17.609375 16.066406 17.433594 15.238281 C 17.273438 15.503906 17.074219 15.726562 16.757812 15.835938 C 16.769531 15.53125 16.613281 15.355469 16.355469 15.25 C 16.332031 15.234375 16.304688 15.191406 16.308594 15.167969 C 16.375 14.730469 16.273438 14.332031 16.074219 13.953125 C 15.816406 13.441406 15.429688 13.039062 15.015625 12.652344 C 13.824219 11.539062 13.179688 10.996094 12.980469 10.050781 C 12.945312 9.898438 12.945312 9.746094 12.921875 9.574219 C 12.890625 9.628906 12.863281 9.667969 12.84375 9.707031 C 12.667969 10.101562 12.617188 10.523438 12.667969 10.949219 C 12.6875 11.121094 12.742188 11.273438 12.878906 11.394531 C 13.28125 11.765625 13.6875 12.136719 14.082031 12.519531 C 14.496094 12.917969 14.875 13.371094 15.082031 13.90625 C 15.015625 13.847656 14.972656 13.777344 14.925781 13.714844 C 14.628906 13.296875 14.246094 12.960938 13.875 12.613281 C 13.398438 12.167969 12.917969 11.734375 12.472656 11.273438 C 11.664062 10.429688 11.6875 9.667969 11.664062 9.382812 Z M 22.980469 12.742188 C 22.957031 12.742188 22.933594 12.75 22.902344 12.753906 C 22.105469 12.890625 21.636719 13.390625 20.882812 13.96875 C 20.453125 14.300781 20.3125 14.125 20.390625 13.949219 C 20.445312 13.804688 20.523438 13.671875 20.601562 13.539062 C 20.640625 13.464844 20.695312 13.398438 20.742188 13.328125 C 20.734375 13.320312 20.722656 13.316406 20.714844 13.308594 C 19.601562 14.058594 18.785156 15.046875 18.332031 16.316406 C 18.34375 16.328125 18.359375 16.339844 18.371094 16.351562 C 18.386719 16.328125 18.394531 16.304688 18.410156 16.285156 C 18.839844 15.785156 19.351562 15.390625 19.921875 15.0625 C 20.671875 14.628906 21.46875 14.308594 22.34375 14.230469 C 22.523438 14.214844 22.707031 14.226562 22.886719 14.226562 C 22.8125 14.257812 22.742188 14.265625 22.667969 14.273438 C 21.902344 14.371094 21.203125 14.640625 20.542969 15.03125 C 19.292969 15.765625 18.289062 16.765625 17.4375 17.921875 C 17.425781 17.9375 17.421875 17.957031 17.410156 17.972656 C 18.007812 18.191406 18.398438 18.683594 18.902344 19.027344 C 18.910156 19.023438 18.914062 19.015625 18.917969 19.007812 L 18.96875 18.898438 C 19.472656 17.792969 20.082031 16.75 20.894531 15.839844 C 21.585938 15.066406 22.464844 14.804688 23.476562 15.019531 C 23.722656 15.074219 23.949219 15.199219 24.1875 15.296875 C 24.28125 15.242188 24.402344 15.167969 24.519531 15.105469 C 24.867188 14.929688 25.238281 14.820312 25.621094 14.738281 C 26.230469 14.609375 26.84375 14.535156 27.460938 14.683594 L 27.460938 14.664062 C 27.441406 14.644531 27.410156 14.628906 27.390625 14.601562 C 26.910156 14.128906 26.355469 13.765625 25.734375 13.511719 C 25.203125 13.296875 24.65625 13.1875 24.082031 13.222656 C 23.671875 13.246094 23.273438 13.347656 22.886719 13.484375 C 22.785156 13.519531 22.675781 13.550781 22.570312 13.574219 C 22.367188 13.625 22.265625 13.445312 22.375 13.296875 C 22.507812 13.105469 22.515625 13.125 22.996094 12.804688 C 23.019531 12.785156 23.046875 12.769531 23.085938 12.742188 Z M 13.992188 13.949219 C 14.476562 14.144531 14.785156 14.480469 14.976562 14.945312 C 14.511719 14.992188 14.128906 14.605469 13.992188 13.949219 Z M 7.8125 15.261719 C 6.8125 16.273438 5.972656 17.386719 5.496094 18.730469 C 5.800781 18.488281 6.113281 18.261719 6.46875 18.066406 C 6.128906 18.980469 5.660156 20.234375 6.148438 22.214844 C 6.335938 22.996094 6.640625 23.722656 7.144531 24.359375 C 7.261719 24.511719 7.40625 24.640625 7.539062 24.78125 C 7.546875 24.773438 7.554688 24.769531 7.5625 24.761719 C 7.503906 24.476562 7.472656 24.183594 7.5 23.863281 C 7.589844 23.996094 7.660156 24.109375 7.742188 24.214844 C 8.261719 24.871094 8.929688 25.339844 9.695312 25.675781 C 10.726562 26.140625 11.804688 26.222656 12.910156 26.03125 C 15.179688 25.632812 16.65625 24.035156 17.703125 21.972656 C 17.742188 21.902344 17.726562 21.859375 17.664062 21.804688 C 16.039062 20.449219 16.722656 21.003906 15.902344 20.34375 C 15.867188 20.382812 15.902344 20.335938 15.824219 20.46875 C 15.359375 21.25 14.769531 21.914062 14.007812 22.421875 C 13.582031 22.699219 13.117188 22.90625 12.597656 22.90625 C 11.707031 22.90625 11.019531 22.515625 10.558594 21.761719 C 10.0625 20.964844 10.007812 20.09375 10.21875 19.195312 C 10.539062 17.808594 11.460938 16.933594 11.8125 16.558594 C 11.039062 16.304688 10.449219 16.628906 9.894531 17.128906 C 9.929688 16.558594 10.074219 16.054688 10.382812 15.597656 C 9.378906 16.035156 8.484375 16.625 7.707031 17.402344 C 7.691406 17.164062 7.929688 15.609375 7.9375 15.566406 C 7.949219 15.457031 7.914062 15.347656 7.8125 15.261719 Z M 13.84375 15.960938 C 13.640625 16.414062 13.78125 16.882812 14.148438 17.191406 C 14.335938 17.34375 14.53125 17.488281 14.71875 17.648438 C 14.910156 17.804688 15.023438 18.007812 15.046875 18.257812 C 15.0625 18.449219 15.078125 18.644531 15.121094 18.835938 C 15.210938 19.269531 15.488281 19.589844 15.820312 19.863281 C 16.503906 20.425781 17.183594 20.984375 17.867188 21.550781 C 18.605469 22.164062 18.441406 22.898438 18.402344 23.847656 C 18.363281 24.789062 18.90625 25.609375 19.785156 25.949219 C 19.828125 25.96875 19.871094 25.976562 19.9375 25.996094 C 19.289062 25.25 19.519531 24.183594 19.964844 23.847656 C 19.976562 23.941406 19.980469 24.027344 20 24.113281 C 20.390625 25.921875 21.878906 26.746094 23.511719 26.445312 C 24.175781 26.324219 24.777344 26.082031 25.285156 25.632812 C 25.367188 25.558594 25.4375 25.464844 25.53125 25.367188 C 24.730469 25.554688 24.050781 25.371094 23.425781 24.933594 C 23.453125 24.921875 23.480469 24.917969 23.503906 24.917969 C 24.382812 24.992188 25.179688 24.78125 25.859375 24.207031 C 26.664062 23.523438 26.957031 22.445312 26.578125 21.5 C 26.238281 20.671875 25.605469 20.171875 24.769531 19.902344 C 24.378906 19.773438 23.855469 19.730469 23.585938 19.78125 C 23.996094 19.945312 24.167969 20.054688 24.363281 20.273438 C 24.882812 20.867188 24.792969 21.699219 24.136719 22.144531 C 23.65625 22.476562 23.109375 22.578125 22.53125 22.519531 C 22.480469 22.515625 22.4375 22.503906 22.40625 22.496094 C 22.523438 22.34375 22.65625 22.207031 22.742188 22.050781 C 23.128906 21.359375 22.964844 20.324219 22.382812 19.75 C 22.296875 19.664062 22.191406 19.589844 22.09375 19.507812 C 22.082031 19.5625 22.089844 19.59375 22.097656 19.621094 C 22.269531 20.304688 21.761719 20.949219 21.070312 20.925781 C 20.757812 20.914062 20.496094 20.773438 20.261719 20.578125 C 19.457031 19.917969 18.648438 19.261719 17.84375 18.597656 C 17.601562 18.394531 17.328125 18.265625 17.015625 18.238281 C 16.824219 18.222656 16.632812 18.214844 16.441406 18.203125 C 16.199219 18.1875 16.078125 18.089844 16.011719 17.859375 C 15.972656 17.71875 15.949219 17.578125 15.921875 17.441406 C 15.859375 17.109375 15.664062 16.90625 15.332031 16.855469 C 15.148438 16.828125 14.960938 16.816406 14.78125 16.792969 C 14.242188 16.738281 13.960938 16.492188 13.84375 15.960938 Z M 13.84375 15.960938 "/>
</g>
</svg>
